PathFileType	4	(X/Y/Z)	/Users/whiskymisky/masters/Sports2D_results/trial_4_Sports2D/trial_4_Sports2D_px_person00.trc
DataRate	CameraRate	NumFrames	NumMarkers	Units	OrigDataRate	OrigDataStartFrame	OrigNumFrames
50	50	12	22	m	50	137	1098
Frame#	Time	Hip			RHip			RKnee			RAnkle			RBigToe			RSmallToe			RHeel			LHip			LKnee			LAnkle			LBigToe			LSmallToe			LHeel			Neck			Head			Nose			RShoulder			RElbow			RWrist			LShoulder			LElbow			LWrist		
		X1	Y1	Z1	X2	Y2	Z2	X3	Y3	Z3	X4	Y4	Z4	X5	Y5	Z5	X6	Y6	Z6	X7	Y7	Z7	X8	Y8	Z8	X9	Y9	Z9	X10	Y10	Z10	X11	Y11	Z11	X12	Y12	Z12	X13	Y13	Z13	X14	Y14	Z14	X15	Y15	Z15	X16	Y16	Z16	X17	Y17	Z17	X18	Y18	Z18	X19	Y19	Z19	X20	Y20	Z20	X21	Y21	Z21	X22	Y22	Z22
137	2.74	960.3065692427306	608.914074270404	0.0	927.1544779035697	619.3725210034307	0.0	895.3638915090328	746.9829798103044	0.0	875.105383016788	858.7553821725002	0.0	874.471127772752	895.657288056649	0.0	853.9805036126842	891.764672781956	0.0	881.4801823816467	872.5037861826956	0.0	992.4443455732785	621.0816577571796	0.0	1011.0379481701189	746.9930706298372	0.0	1027.859093747393	848.8571267645139	0.0	1042.7825219914823	882.6277284954826	0.0	1056.0077106454926	876.6064986959445	0.0	1020.9744636774521	861.0476957421749	0.0	963.5214767145751	432.3488977097827	0.0	956.6331050178977	348.3634025311739	0.0	952.1160092805355	400.11092164901225	0.0	913.6448574453323	455.6187934418511	0.0	897.991463487993	543.8786510779057	0.0	889.5992750974893	620.9077833507895	0.0	1016.8456336972812	456.91611565250975	0.0	1029.0237428598566	547.5593499912562	0.0	1025.2925651250998	624.3549130620676	0.0
138	2.7600000000000002	960.3523778067806	609.1414266707243	0.0	926.9250990629073	619.3813454271333	0.0	895.3885109622103	747.2395394661602	0.0	875.0311645884115	858.7320319623025	0.0	874.484407819157	895.6303130845279	0.0	853.9768417235565	891.7595736098223	0.0	881.2703748141495	872.5838468065289	0.0	992.6317364976666	621.105938528099	0.0	1011.2404177901159	747.1741201632159	0.0	1027.8748919643479	848.9861277702207	0.0	1042.768250383126	882.8482824359988	0.0	1056.0561380131608	876.9331785128402	0.0	1021.0413175510606	861.2377192444483	0.0	963.5140554043275	432.16780627029095	0.0	956.076883785015	348.3595791818276	0.0	951.3840661186814	400.0064986805547	0.0	913.6280942715706	455.47865960388157	0.0	897.9632090153613	543.7612609272513	0.0	889.3812583269603	620.9304936195813	0.0	1016.8648344386736	456.5876161439714	0.0	1029.1484726127082	547.6304542883813	0.0	1025.1892738984416	624.2712383073318	0.0
139	2.7800000000000002	960.3738995368607	609.2462433247566	0.0	926.8925048861487	619.479215051955	0.0	895.3460976618348	747.4231271613678	0.0	875.0860833182102	858.7130225594867	0.0	874.4683518716646	895.6196929799801	0.0	853.8769160952004	891.7602416194396	0.0	881.1411942390266	872.6792895971494	0.0	992.7025636892453	621.2289936051324	0.0	1011.5988230346171	747.3977934760794	0.0	1027.8119056044857	849.0133431290124	0.0	1042.775451792342	883.1138473172338	0.0	1056.1971447811263	877.3588574660404	0.0	1021.1158983512715	861.3151305221215	0.0	963.6128187958027	432.04565642019355	0.0	955.5920189420528	348.3060223967621	0.0	950.6676724399862	399.9115294591638	0.0	913.6412668192957	455.4348753126606	0.0	897.9812741231453	543.5905744095553	0.0	889.2841537641266	621.017720117223	0.0	1016.9083300530797	456.32969299357694	0.0	1029.2928841545588	547.6149593548828	0.0	1025.071388734046	624.1763845746417	0.0
140	2.8000000000000003	960.4128991166372	609.0991869134313	0.0	927.0089158303986	619.5084941656696	0.0	895.2298260970606	747.4677460059395	0.0	875.2013825272104	858.6893650576445	0.0	874.540918539306	895.5772956523776	0.0	853.7753924721593	891.8045800690884	0.0	881.0186959640139	872.7914910520609	0.0	992.6608724141705	621.2769266184429	0.0	1011.9814106752891	747.4992231018526	0.0	1027.6897495205567	848.9379575873511	0.0	1042.8100788242616	883.3752897636477	0.0	1056.3604392391503	877.6634758947503	0.0	1021.1337317210821	861.322734691246	0.0	963.7388340250343	431.97478974424286	0.0	955.2706853511971	348.2722162529658	0.0	949.9972701645845	399.8948395407597	0.0	913.7162495767993	455.40900468805125	0.0	897.9799513776155	543.432231872487	0.0	889.2481606467179	621.1462473137246	0.0	1016.9502803771777	456.1740050228218	0.0	1029.4559124700554	547.5895603365904	0.0	1024.9882879954473	624.175403620618	0.0
141	2.82	960.4711609027839	608.6674099082323	0.0	927.1382758374726	619.3628004090658	0.0	895.0903027639179	747.3346311077819	0.0	875.2250839084355	858.6510818070478	0.0	874.7839145000114	895.4968233782571	0.0	853.7886128565848	891.9611501801922	0.0	880.7116954397494	872.9393622767759	0.0	992.5612738637491	621.1096760563706	0.0	1012.2503768398537	747.3596975473006	0.0	1027.6195084624128	848.8630984332589	0.0	1042.8343661568797	883.5701425002329	0.0	1056.4647252987365	877.6862542896271	0.0	1021.0921311773592	861.4095566643181	0.0	963.7938467079483	431.90246475558007	0.0	955.1222501609243	348.2998807868148	0.0	949.4063091838276	399.99497899312416	0.0	913.8358307700697	455.2878540505824	0.0	897.9263777123218	543.3459107784822	0.0	889.1724076203398	621.2534210268785	0.0	1017.0041746709105	456.14579566627623	0.0	1029.6377766502844	547.6588684492583	0.0	1024.9810097833947	624.2729215438491	0.0
142	2.84	960.5188687652541	608.1474521284129	0.0	927.2234559762508	619.1452900463894	0.0	894.9328694099501	747.0491582839804	0.0	875.0635201954578	858.5634150090351	0.0	875.0641132589251	895.4193239551141	0.0	853.9032951799438	892.1879718408408	0.0	880.1717965210375	873.050008443423	0.0	992.495266307711	620.7850979610799	0.0	1012.3542779006178	747.103004546498	0.0	1027.6545118603574	848.8108986449387	0.0	1042.7586030877217	883.6763090176509	0.0	1056.4605419547572	877.4821728732721	0.0	1021.0489876595939	861.5708862406253	0.0	963.7075916589707	431.78687297739964	0.0	954.9925849327504	348.36018502022023	0.0	948.8859312618049	400.1601821372147	0.0	913.9222570477475	455.144551770351	0.0	897.8683867402044	543.3374674622031	0.0	888.9911855096019	621.2692193616132	0.0	1017.0960368076028	456.18231956339014	0.0	1029.7688712951278	547.7353856778105	0.0	1025.0445517635817	624.283601132163	0.0
143	2.86	960.5384755157552	607.76864276424	0.0	927.2946881452784	619.0045237649975	0.0	894.7698927922737	746.6918652449486	0.0	874.7493505955674	858.4513895075546	0.0	875.1969471209154	895.3886645761827	0.0	853.9901833676875	892.3509455835288	0.0	879.581872139345	873.0516849903356	0.0	992.5253118120387	620.4058547135718	0.0	1012.3231027388833	746.9039366338513	0.0	1027.7679431541032	848.7655627351219	0.0	1042.562833892013	883.6954565661505	0.0	1056.3660125053732	877.2543907632744	0.0	1021.0661370798254	861.7129030513335	0.0	963.4787878647462	431.6620026540341	0.0	954.6947176155538	348.41658205977836	0.0	948.3489571280526	400.3153382772531	0.0	913.9009946755837	455.1369013646835	0.0	897.8075940364042	543.3719650211328	0.0	888.7334679972212	621.1284202513755	0.0	1017.1890274160446	456.18744728937907	0.0	1029.7681659782038	547.6650503389864	0.0	1025.1382705893657	624.0708547308828	0.0
144	2.88	960.5123472862776	607.5675899620178	0.0	927.3537508934784	618.9677669405004	0.0	894.6901478328155	746.3961985558053	0.0	874.4146035034984	858.4390504444175	0.0	875.1700019375627	895.4118596664882	0.0	853.9557732035717	892.3642827696696	0.0	879.1845920485863	873.0013229991247	0.0	992.6182461743955	619.9958314855612	0.0	1012.1878221383612	746.7906018197021	0.0	1027.9150472283225	848.8274626586431	0.0	1042.3452199279002	883.6411737336971	0.0	1056.226215745062	877.2003174924288	0.0	1021.1825412495891	861.8924014708938	0.0	963.1547410296349	431.6144258100984	0.0	954.1636250324368	348.4702401516334	0.0	947.6870255794947	400.49750629567933	0.0	913.7788247998388	455.29619867475225	0.0	897.6732975430657	543.423355396214	0.0	888.4586258919098	620.834989830665	0.0	1017.1804850050191	456.1692218662172	0.0	1029.6521317089746	547.4622937342908	0.0	1025.2469743375668	623.7484074727116	0.0
145	2.9	960.4166997564336	607.4717435229541	0.0	927.3318319086553	619.0034384338957	0.0	894.7599269795832	746.3297725419051	0.0	874.1869714977097	858.6123070439087	0.0	875.1015577250951	895.4495405473413	0.0	853.8430389707692	892.2380872423256	0.0	879.0769003115822	872.9945318759754	0.0	992.6828414454477	619.6195400413612	0.0	1011.9607472335708	746.75042939185	0.0	1028.049860666834	849.1065597164941	0.0	1042.2268304882743	883.5642887422875	0.0	1056.0671477023918	877.4138646479523	0.0	1021.3899191847636	862.2198559312644	0.0	962.789296102841	431.68892149698524	0.0	953.4416520657951	348.55984598172006	0.0	946.879385204477	400.8277965018587	0.0	913.6384508209893	455.5447576509451	0.0	897.4703264841764	543.4803672821763	0.0	888.1453028795459	620.4884881161388	0.0	1016.9950570007904	456.22008999779126	0.0	1029.5082909438627	547.280408224788	0.0	1025.3953885568237	623.5199634056185	0.0
146	2.92	960.2463651947245	607.4650075117097	0.0	927.1896887309965	619.107533954554	0.0	894.9300735382475	746.5765507603568	0.0	874.0850739215892	858.8951447444209	0.0	875.0593261338829	895.4534671010256	0.0	853.7697235026847	892.01951747841	0.0	879.1909208874844	873.0167490127553	0.0	992.6967467008263	619.4387024788375	0.0	1011.6883604251394	746.8225611995805	0.0	1028.122874111532	849.4937909704232	0.0	1042.2192092527307	883.5314450322803	0.0	1055.9138748252699	877.8344023061596	0.0	1021.6137730861252	862.5825971126045	0.0	962.4519739669096	431.8442620109494	0.0	952.6229910754587	348.7570667815202	0.0	946.0239451767796	401.3951487571441	0.0	913.5368812211653	455.78991482755725	0.0	897.3151487739223	543.5279488438664	0.0	887.7143047130238	620.2433037592783	0.0	1016.6617963993829	456.3665395575733	0.0	1029.4134846244099	547.2293464082479	0.0	1025.6019935976844	623.4347203344762	0.0
147	2.94	960.0145478769232	607.5456273539838	0.0	926.9975259433741	619.2566344451886	0.0	895.1048440368678	747.0112256376367	0.0	874.0475080817744	859.1304211264469	0.0	875.0188353246524	895.4208520587483	0.0	853.7929215127258	891.7823771099429	0.0	879.3975177201015	872.9981786843134	0.0	992.711325096917	619.5459473577287	0.0	1011.455988123544	747.0054858390296	0.0	1028.122563301889	849.7801190208074	0.0	1042.2283311972863	883.5735476335797	0.0	1055.80435823304	878.2900184691719	0.0	1021.7533751089306	862.7885305548361	0.0	962.2313869878564	431.9873799968174	0.0	951.8561313164191	349.0999057194453	0.0	945.2275513809625	402.218780382615	0.0	913.4553518904692	455.90600008083476	0.0	897.2810774942055	543.5650673664534	0.0	887.1461752123096	620.2576187563993	0.0	1016.2900664581351	456.5243484034768	0.0	1029.3924157293611	547.2904037895347	0.0	1025.8275340095802	623.4264354615161	0.0
148	2.96	959.7641275894075	607.6413718165021	0.0	926.8639338143123	619.3613761478573	0.0	895.2435362576842	747.3782554587932	0.0	874.0523444391602	859.2174876842755	0.0	874.9530966737373	895.3746811846031	0.0	853.8748981027333	891.6122795806002	0.0	879.6143902134431	872.9352011351823	0.0	992.7337263293387	619.837008975415	0.0	1011.3322257971199	747.2111640769367	0.0	1028.0886964341587	849.928005064599	0.0	1042.215171705676	883.676955255995	0.0	1055.7621752827276	878.6240180832693	0.0	1021.7244049157271	862.8724605142356	0.0	962.209441059009	432.0177464244355	0.0	951.2867838928491	349.53272903951415	0.0	944.5120683105297	403.2779212070314	0.0	913.3692495461642	455.7672482961144	0.0	897.3288327784744	543.6104499269853	0.0	886.5394262447878	620.5857324149814	0.0	1016.0105735240907	456.601608756505	0.0	1029.4008152440024	547.3489990491721	0.0	1025.9894632320531	623.4610947770936	0.0
